<svg xmlns="http://www.w3.org/2000/svg" width="256" height="256"><path fill-opacity=".016" d="M0 128.004v128.004l128.25-.254 128.25-.254.254-127.75L257.008 0H0v128.004m.485.496c0 70.4.119 99.053.265 63.672.146-35.38.146-92.98 0-128C.604 29.153.485 58.1.485 128.5" fill="#1976D2" fill-rule="evenodd"/><path fill-opacity=".211" d="M45.2 1.2c-.882.882-1.2 9.481-1.2 32.462 0 29.123.141 31.64 2.061 36.771 2.592 6.929 8.526 13.12 17.253 18L70 92.172v30.174c0 28.437-.108 30.24-1.878 31.346-1.033.645-2.833 3.145-4 5.556C62.07 163.487 62 164.924 62 202.856c0 36.516.131 39.48 1.894 42.934 2.339 4.583 4.61 6.687 9.36 8.672 7.527 3.145 16.241.687 21.362-6.024l2.884-3.78.281-41.182.282-41.181-3.546-5.27-3.546-5.269.265-30.049.264-30.049 7-4.253c8.473-5.149 12.804-9.93 15.483-17.09 1.865-4.983 2.017-7.752 2.017-36.653 0-22.981-.318-31.58-1.2-32.462-.74-.74-4.37-1.2-9.465-1.2-7.148 0-8.405.261-9.3 1.934-.619 1.158-1.035 10.391-1.035 23C95 45.333 94.937 46 93 46s-2-.667-2-21.309c0-15.626-.338-21.771-1.268-23.042C88.662.185 87.067-.039 79.482.208L70.5.5l-.269 22.75L69.962 46H65V24.934c0-12.609-.416-21.842-1.035-23C63.07.261 61.813 0 54.665 0 49.57 0 45.94.46 45.2 1.2m120.682.12c-24.435 9.142-34.81 45.397-20.613 72.033 3.674 6.893 11.005 14.69 15.605 16.595L164 91.243v60.556l-3.531 5.248-3.532 5.248.282 41.181.281 41.182 2.884 3.78c5.121 6.711 13.835 9.169 21.362 6.024 4.75-1.985 7.021-4.089 9.36-8.672 1.763-3.454 1.894-6.418 1.894-42.934 0-37.932-.07-39.369-2.122-43.608-1.167-2.411-2.967-4.911-4-5.556-1.77-1.106-1.878-2.911-1.878-31.412V92.041l3.757-1.917c2.066-1.054 6.14-4.437 9.054-7.518 20.921-22.12 16.045-65.481-8.888-79.052C182.632.13 171.855-.915 165.882 1.32M52.01 35.75c.009 27.086.066 27.87 2.373 32.75 2.819 5.963 6.072 9.075 14.117 13.506 10.417 5.737 9.5 2.198 9.5 36.649 0 29.678.044 30.345 2 30.345 1.955 0 2-.667 2-29.418 0-16.18.281-30.15.624-31.045.343-.895 4.166-3.669 8.494-6.166 8.786-5.067 13.985-10.435 15.721-16.229.757-2.527 1.161-13.308 1.161-31.008C108 8.667 107.951 8 106 8c-1.937 0-2 .667-2 21.277C104 55.657 104.278 55 93.098 55 81.592 55 82 55.932 82 29.671 82 8.667 81.938 8 80 8c-1.939 0-2 .667-2 21.845C78 55.818 78.346 55 67.362 55 56.051 55 56.5 56.03 56.5 30.082V8.001h-2.25L52 8l.01 27.75M166.399 9.906c-14.612 6.636-22.662 28.63-17.888 48.875 2.838 12.042 9.308 20.905 18.104 24.806 2.814 1.248 5.401 3.013 5.75 3.923.349.909.635 15.117.635 31.572 0 29.18.049 29.918 1.986 29.918 1.933 0 1.993-.83 2.25-31.244l.264-31.244 5.448-2.752c7.321-3.697 11.614-8.062 15.01-15.26 8.834-18.719 5.595-41.226-7.726-53.686-7.333-6.859-15.729-8.588-23.833-4.908M177.2 20.2c-1.989 1.989-1.368 5.46 1.287 7.2 3.206 2.1 6.133 7.883 7.035 13.901.823 5.486 3.157 7.476 6.604 5.632 1.904-1.019 2.059-1.704 1.486-6.575-.846-7.202-3.926-13.506-8.711-17.829-4.162-3.76-5.781-4.249-7.701-2.329M73.306 160.413l-2.806 2.412-.284 39.154-.284 39.153 3.434 3.434c3.673 3.673 6.688 4.278 11.162 2.239C89.873 244.37 90 243.328 90 201.973v-38.127l-2.923-2.923c-3.836-3.835-9.653-4.051-13.771-.51m94.617.51L165 163.846v38.03c0 25.214.366 38.833 1.085 40.412.597 1.31 2.354 3.131 3.905 4.047 4.42 2.611 7.773 2.102 11.644-1.769l3.434-3.434-.284-39.153-.284-39.154-2.806-2.412c-4.118-3.541-9.935-3.325-13.771.51" fill="#1976D2" fill-rule="evenodd"/><path fill-opacity=".626" d="M45.07 1.416c-.86 1.036-1.094 9.947-.872 33.25L44.5 66.5l2.707 5.512c3.311 6.742 7.803 11.218 16.028 15.973l6.265 3.622.265 30.376.265 30.376-2.462 2.571C62.153 160.583 62 161.879 62 202.102c0 25.472.368 38.394 1.169 41.069 1.459 4.867 7.385 10.363 12.728 11.801 8.48 2.284 18.749-3.436 21.051-11.725.637-2.294 1.034-18.288 1.024-41.247-.015-34.25-.175-37.847-1.853-41.5-1.01-2.2-2.8-4.857-3.978-5.905-2.099-1.868-2.141-2.499-2.141-32.206V92.088l6.75-3.963c8.294-4.871 13.433-10.064 16.451-16.625 2.222-4.833 2.309-6.064 2.601-36.834.222-23.303-.012-32.214-.872-33.25C113.425-.398 98.973-.573 97.2 1.2c-.862.862-1.2 7.489-1.2 23.5V47h-6V24.7c0-16.011-.338-22.638-1.2-23.5-1.603-1.603-15.997-1.603-17.6 0-.862.862-1.2 7.504-1.2 23.566v22.367l-2.75-.317-2.75-.316-.27-21.922c-.174-14.115-.663-22.394-1.372-23.25-1.58-1.903-16.195-1.832-17.788.088M168 .873c-20.958 6.919-33.033 32.438-27.562 58.249 2.709 12.778 10.714 24.847 20.148 30.376L165 92.084v30.303c0 29.709-.042 30.34-2.141 32.208-1.178 1.048-2.968 3.705-3.978 5.905-1.678 3.653-1.838 7.25-1.853 41.5-.01 22.959.387 38.953 1.024 41.247 2.302 8.289 12.571 14.009 21.051 11.725 5.343-1.438 11.269-6.934 12.728-11.801.804-2.683 1.162-15.589 1.147-41.287-.02-34.13-.182-37.732-1.859-41.384-1.01-2.2-2.8-4.857-3.978-5.905-2.1-1.868-2.141-2.492-2.141-32.506V91.488l3.25-1.435c5.252-2.319 13.535-11.369 16.81-18.367 7.499-16.026 7.617-33.909.324-49.349-3.435-7.272-11.363-15.786-17.682-18.988C182.53.728 172.324-.554 168 .873M52 36.304v28.303l2.549 5.115c2.808 5.635 5.632 8.1 15.687 13.69l6.736 3.744.264 31.172.264 31.172h5l.264-31.023.264-31.024 9.23-5.476c7.877-4.674 9.708-6.277 12.486-10.933L108 65.588V8h-4.962l-.269 22.75-.269 22.75h-19l-.269-22.75L82.962 8h-5.924l-.269 22.75L76.5 53.5h-19l-.269-22.75L56.962 8H52v28.304M166.422 9.365C154.682 14.681 147 29.565 147 47c0 18.295 7.599 31.78 21.5 38.151l3 1.375.5 31.487.5 31.487h5l.264-31.578.264-31.578 4.85-2.192c9.212-4.163 16.69-14.375 19.243-26.279.635-2.961.908-9.241.623-14.323-.817-14.573-6.034-25.293-15.569-31.994-3.531-2.482-5.41-3.046-10.968-3.29-4.195-.184-7.86.228-9.785 1.099m10.063 12.683c-.484 1.525.377 3.164 3.369 6.41 3.684 3.996 5.497 8.132 6.329 14.44.425 3.219 3.24 4.966 5.567 3.456 3.772-2.448.299-16.116-5.697-22.419-4.268-4.486-8.48-5.317-9.568-1.887M76.388 157.98c-1.161.469-3.074 2.077-4.25 3.572-2.101 2.671-2.138 3.393-2.138 41.66v38.942l2.923 2.923C75.216 247.369 76.742 248 80 248s4.784-.631 7.077-2.923L90 242.154v-39.389c0-38.607-.042-39.432-2.096-41.638-3.442-3.694-7.451-4.789-11.516-3.147m94.207.506c-5.68 3.043-5.529 1.834-5.563 44.341L165 242.154l2.923 2.923c2.293 2.292 3.819 2.923 7.077 2.923s4.784-.631 7.077-2.923l2.923-2.923v-78.122l-2.75-3.019c-3.361-3.689-7.721-4.634-11.655-2.527" fill="#1976D2" fill-rule="evenodd"/><path fill-opacity=".973" d="M45.508 1.635c-1.457 1.457-1.601 5.018-1.321 32.75.313 31.093.315 31.119 2.903 36.615 3.657 7.764 6.612 10.86 15.271 16l7.582 4.5.028 30.644.029 30.644-2.968 3.178c-1.633 1.747-3.23 4.608-3.549 6.356-.319 1.748-.446 21.033-.282 42.856.288 38.271.372 39.776 2.361 42.438C69.66 253.103 72.591 254.5 80 254.5c5.362 0 7.454-.449 9.615-2.062 4.184-3.124 6.525-6.759 7.456-11.58 1.215-6.288 1.091-71.432-.146-76.858-.564-2.475-2.353-6.161-3.975-8.191L90 152.117l.023-30.308.023-30.309 7.705-4.5c8.176-4.775 13.84-10.984 16.26-17.826.918-2.596 1.425-12.793 1.728-34.768C116.241-1.942 116.771 0 106.363 0 95.395 0 96-1.433 96 24.535V47h-6V24.535C90-1.433 90.605 0 79.637 0 69.706 0 70-.766 70 25.071V47h-6V24.535C64-1.433 64.605 0 53.637 0c-4.677 0-6.952.457-8.129 1.635M170.5.951c-13.106 2.038-24.648 14.266-29.056 30.782-1.877 7.035-2.097 21.308-.439 28.477 2.838 12.271 12.709 26.358 20.825 29.72l3.17 1.313v60.874l-2.95 3.692c-1.622 2.03-3.411 5.716-3.975 8.191-1.237 5.426-1.361 70.57-.146 76.858.931 4.821 3.272 8.456 7.456 11.58 2.161 1.613 4.253 2.062 9.615 2.062 7.409 0 10.34-1.397 14.438-6.884 1.989-2.662 2.073-4.167 2.361-42.438.164-21.823.037-41.108-.282-42.856-.319-1.748-1.916-4.609-3.549-6.356L185 152.788V91.455l3.67-1.977c14.202-7.648 24.27-30.965 21.389-49.535-1.895-12.215-5.707-21.056-12.332-28.601C190.858 3.518 180.186-.555 170.5.951M51.667 7.667C51.3 8.033 51 20.102 51 34.485c0 35.822 1.003 38.592 17.5 48.305l8 4.71.264 31.25.264 31.25h5.944l.264-31.207.264-31.207 7.687-4.543c9.169-5.419 12.288-8.205 15.16-13.543 2.062-3.832 2.153-5.22 2.153-33v-29l-2.75-.316-2.75-.317v22.367c0 16.062-.338 22.704-1.2 23.566-1.603 1.603-15.997 1.603-17.6 0-.862-.862-1.2-7.489-1.2-23.5V7h-6v22.3c0 16.011-.338 22.638-1.2 23.5-1.603 1.603-15.997 1.603-17.6 0-.862-.862-1.2-7.489-1.2-23.5V7h-2.333c-1.284 0-2.634.3-3 .667m118.327.216c-5.067 1.645-8.698 4.073-12.883 8.612-17.845 19.36-12.516 57.599 9.478 68.004l5.411 2.56V150h6V87.029l5.837-2.947c6.988-3.527 11.473-8.379 15.283-16.535 7.686-16.451 5.17-38.334-5.811-50.548-2.521-2.804-6.321-5.985-8.443-7.067-4.474-2.283-11.269-3.219-14.872-2.049m7.03 14.072c-.872 1.629-.448 2.554 2.528 5.531 4.006 4.006 6.448 9.039 6.448 13.291 0 3.702 2.13 6.536 4.566 6.073 4.979-.946 1.464-16.487-5.248-23.198-4.075-4.076-6.73-4.619-8.294-1.697M74.304 158.956c-5.202 3.172-5.467 5.572-5.119 46.276l.315 36.732 3.156 3.154c4.463 4.462 10.225 4.462 14.688 0l3.156-3.154.285-37.69c.206-27.1-.043-38.483-.885-40.515-2.66-6.421-9.491-8.525-15.596-4.803m94.466.01c-4.716 3.71-4.86 5.136-4.555 45.308l.285 37.69 3.156 3.154c4.463 4.462 10.225 4.462 14.688 0l3.156-3.154.315-36.732c.214-25.05-.042-37.94-.805-40.53-2.007-6.81-10.887-9.947-16.24-5.736" fill="#1976D2" fill-rule="evenodd"/></svg>